# xmcd
#
# Track frame offsets: 
#        182
#        21287
#        50870
#        77972
#        101900
#        129305
#        152372
#        176792
#        194500
#        221452
#
# Disc length: 3318 seconds
#
# Revision: 2
# Processed by: cddbd v1.5.2PL0 Copyright (c) Steve Scherf et al.
# Submitted via: ExactAudioCopy v1.0b3
#
DISCID=8c0cf40a
DTITLE=Flim and The BB's - Tricycle
DYEAR=1983
DGENRE=Jazz
TTITLE0=Tricycle
TTITLE1=Cakewalk
TTITLE2=Lunch Hour Wedding March
TTITLE3=Sweet Winds Of Change
TTITLE4=Tell Me
TTITLE5=Thunder And Birdies
TTITLE6=High Wire
TTITLE7=The 8:29
TTITLE8=Sam's Samba
TTITLE9=Eden
EXTD=
EXTT0=
EXTT1=
EXTT2=
EXTT3=
EXTT4=
EXTT5=
EXTT6=
EXTT7=
EXTT8=
EXTT9=
PLAYORDER=
